<svg width="646" height="255" viewBox="0 0 646 255" fill="none" xmlns="http://www.w3.org/2000/svg">
<rect x="9" y="10" width="360" height="203" rx="23" fill="#29ABE2"/>
<rect x="139" y="144" width="207" height="18" rx="7" fill="white" fill-opacity="0.2"/>
<rect x="139" y="116" width="207" height="19" rx="7" fill="white" fill-opacity="0.2"/>
<rect x="207" y="42" width="139" height="12" rx="6" fill="white" fill-opacity="0.2"/>
<rect x="207" y="64" width="139" height="12" rx="6" fill="white" fill-opacity="0.2"/>
<rect x="139" y="170" width="207" height="19" rx="7" fill="white" fill-opacity="0.2"/>
<g clip-path="url(#clip0_284_54)">
<path d="M53.3671 34.6445C54.6562 33.7891 56.3437 33.7891 57.6328 34.6445L59.7187 36.0156C60.4218 36.4727 61.2421 36.6953 62.0742 36.6484L64.5703 36.4961C66.1171 36.4023 67.5703 37.2461 68.2617 38.6289L69.3867 40.8672C69.7617 41.6172 70.3711 42.2148 71.1093 42.5898L73.3711 43.7266C74.7539 44.418 75.5976 45.8711 75.5039 47.418L75.3515 49.9141C75.3046 50.7461 75.5273 51.5781 75.9843 52.2695L77.3671 54.3555C78.2226 55.6445 78.2226 57.332 77.3671 58.6211L75.9843 60.7188C75.5273 61.4219 75.3046 62.2422 75.3515 63.0742L75.5039 65.5703C75.5976 67.1172 74.7539 68.5703 73.3711 69.2617L71.1328 70.3867C70.3828 70.7617 69.7851 71.3711 69.4101 72.1094L68.2734 74.3711C67.582 75.7539 66.1289 76.5977 64.582 76.5039L62.0859 76.3516C61.2539 76.3047 60.4218 76.5273 59.7304 76.9844L57.6445 78.3672C56.3554 79.2227 54.6679 79.2227 53.3789 78.3672L51.2812 76.9844C50.5781 76.5273 49.7578 76.3047 48.9257 76.3516L46.4296 76.5039C44.8828 76.5977 43.4296 75.7539 42.7382 74.3711L41.6132 72.1328C41.2382 71.3828 40.6289 70.7852 39.8906 70.4102L37.6289 69.2734C36.2461 68.582 35.4023 67.1289 35.4961 65.582L35.6484 63.0859C35.6953 62.2539 35.4726 61.4219 35.0156 60.7305L33.6445 58.6328C32.789 57.3438 32.789 55.6563 33.6445 54.3672L35.0156 52.2813C35.4726 51.5781 35.6953 50.7578 35.6484 49.9258L35.4961 47.4297C35.4023 45.8828 36.2461 44.4297 37.6289 43.7383L39.8671 42.6133C40.6171 42.2266 41.2265 41.6172 41.6015 40.8672L42.7265 38.6289C43.4179 37.2461 44.8711 36.4023 46.4179 36.4961L48.914 36.6484C49.7461 36.6953 50.5781 36.4727 51.2695 36.0156L53.3671 34.6445ZM64.875 56.5C64.875 54.0136 63.8872 51.629 62.1291 49.8709C60.3709 48.1127 57.9864 47.125 55.5 47.125C53.0136 47.125 50.629 48.1127 48.8708 49.8709C47.1127 51.629 46.125 54.0136 46.125 56.5C46.125 58.9864 47.1127 61.371 48.8708 63.1291C50.629 64.8873 53.0136 65.875 55.5 65.875C57.9864 65.875 60.3709 64.8873 62.1291 63.1291C63.8872 61.371 64.875 58.9864 64.875 56.5ZM33.1523 85.7734L38.2031 73.7617C38.2265 73.7734 38.2382 73.7852 38.25 73.8086L39.375 76.0469C40.7461 78.7656 43.5937 80.418 46.6406 80.2422L49.1367 80.0898C49.1601 80.0898 49.1953 80.0898 49.2187 80.1133L51.3046 81.4961C51.9023 81.8828 52.5351 82.1875 53.1914 82.3984L48.7851 92.8633C48.5156 93.5078 47.9179 93.9414 47.2265 94C46.5351 94.0586 45.8671 93.7422 45.4921 93.1562L41.7187 87.3789L35.1445 88.3516C34.4765 88.4453 33.8086 88.1758 33.3867 87.6484C32.9648 87.1211 32.8828 86.3945 33.1406 85.7734H33.1523ZM62.2148 92.8516L57.8086 82.3984C58.4648 82.1875 59.0976 81.8945 59.6953 81.4961L61.7812 80.1133C61.8046 80.1016 61.8281 80.0898 61.8632 80.0898L64.3593 80.2422C67.4062 80.418 70.2539 78.7656 71.625 76.0469L72.75 73.8086C72.7617 73.7852 72.7734 73.7734 72.7968 73.7617L77.8593 85.7734C78.1171 86.3945 78.0234 87.1094 77.6132 87.6484C77.2031 88.1875 76.5234 88.457 75.8554 88.3516L69.2812 87.3789L65.5078 93.1445C65.1328 93.7305 64.4648 94.0469 63.7734 93.9883C63.082 93.9297 62.4843 93.4844 62.2148 92.8516Z" fill="white" fill-opacity="0.7"/>
</g>
<rect x="277" y="42" width="360" height="203" rx="23" fill="#ED1E79"/>
<rect x="407" y="176" width="207" height="18" rx="7" fill="white" fill-opacity="0.2"/>
<rect x="407" y="148" width="207" height="19" rx="7" fill="white" fill-opacity="0.2"/>
<rect x="475" y="74" width="139" height="12" rx="6" fill="white" fill-opacity="0.2"/>
<rect x="475" y="96" width="139" height="12" rx="6" fill="white" fill-opacity="0.2"/>
<rect x="407" y="202" width="207" height="19" rx="7" fill="white" fill-opacity="0.2"/>
<g clip-path="url(#clip1_284_54)">
<path d="M321.367 66.6445C322.656 65.7891 324.344 65.7891 325.633 66.6445L327.719 68.0156C328.422 68.4727 329.242 68.6953 330.074 68.6484L332.57 68.4961C334.117 68.4023 335.57 69.2461 336.262 70.6289L337.387 72.8672C337.762 73.6172 338.371 74.2148 339.109 74.5898L341.371 75.7266C342.754 76.418 343.598 77.8711 343.504 79.418L343.352 81.9141C343.305 82.7461 343.527 83.5781 343.984 84.2695L345.367 86.3555C346.223 87.6445 346.223 89.332 345.367 90.6211L343.984 92.7188C343.527 93.4219 343.305 94.2422 343.352 95.0742L343.504 97.5703C343.598 99.1172 342.754 100.57 341.371 101.262L339.133 102.387C338.383 102.762 337.785 103.371 337.41 104.109L336.273 106.371C335.582 107.754 334.129 108.598 332.582 108.504L330.086 108.352C329.254 108.305 328.422 108.527 327.73 108.984L325.644 110.367C324.355 111.223 322.668 111.223 321.379 110.367L319.281 108.984C318.578 108.527 317.758 108.305 316.926 108.352L314.43 108.504C312.883 108.598 311.43 107.754 310.738 106.371L309.613 104.133C309.238 103.383 308.629 102.785 307.891 102.41L305.629 101.273C304.246 100.582 303.402 99.1289 303.496 97.582L303.648 95.0859C303.695 94.2539 303.473 93.4219 303.016 92.7305L301.644 90.6328C300.789 89.3438 300.789 87.6563 301.644 86.3672L303.016 84.2813C303.473 83.5781 303.695 82.7578 303.648 81.9258L303.496 79.4297C303.402 77.8828 304.246 76.4297 305.629 75.7383L307.867 74.6133C308.617 74.2266 309.227 73.6172 309.602 72.8672L310.727 70.6289C311.418 69.2461 312.871 68.4023 314.418 68.4961L316.914 68.6484C317.746 68.6953 318.578 68.4727 319.269 68.0156L321.367 66.6445ZM332.875 88.5C332.875 86.0136 331.887 83.629 330.129 81.8709C328.371 80.1127 325.986 79.125 323.5 79.125C321.014 79.125 318.629 80.1127 316.871 81.8709C315.113 83.629 314.125 86.0136 314.125 88.5C314.125 90.9864 315.113 93.371 316.871 95.1291C318.629 96.8873 321.014 97.875 323.5 97.875C325.986 97.875 328.371 96.8873 330.129 95.1291C331.887 93.371 332.875 90.9864 332.875 88.5ZM301.152 117.773L306.203 105.762C306.227 105.773 306.238 105.785 306.25 105.809L307.375 108.047C308.746 110.766 311.594 112.418 314.641 112.242L317.137 112.09C317.16 112.09 317.195 112.09 317.219 112.113L319.305 113.496C319.902 113.883 320.535 114.188 321.191 114.398L316.785 124.863C316.516 125.508 315.918 125.941 315.227 126C314.535 126.059 313.867 125.742 313.492 125.156L309.719 119.379L303.144 120.352C302.477 120.445 301.809 120.176 301.387 119.648C300.965 119.121 300.883 118.395 301.141 117.773H301.152ZM330.215 124.852L325.809 114.398C326.465 114.188 327.098 113.895 327.695 113.496L329.781 112.113C329.805 112.102 329.828 112.09 329.863 112.09L332.359 112.242C335.406 112.418 338.254 110.766 339.625 108.047L340.75 105.809C340.762 105.785 340.773 105.773 340.797 105.762L345.859 117.773C346.117 118.395 346.023 119.109 345.613 119.648C345.203 120.187 344.523 120.457 343.855 120.352L337.281 119.379L333.508 125.145C333.133 125.73 332.465 126.047 331.773 125.988C331.082 125.93 330.484 125.484 330.215 124.852Z" fill="white" fill-opacity="0.7"/>
</g>
<defs>
<clipPath id="clip0_284_54">
<rect width="45" height="60" fill="white" transform="translate(33 34)"/>
</clipPath>
<clipPath id="clip1_284_54">
<rect width="45" height="60" fill="white" transform="translate(301 66)"/>
</clipPath>
</defs>
</svg>
